<svg width="18" height="18" viewBox="0 0 18 18" fill="none" xmlns="http://www.w3.org/2000/svg">
<g id="chat-alt-8">
<g id="Group">
<path id="Vector" d="M10.9688 1.575H7.03135C3.43135 1.575 0.506348 4.41563 0.506348 7.90313C0.506348 11.3906 2.75635 13.8375 8.26885 16.3125C8.40947 16.3688 8.52197 16.3969 8.6626 16.3969C8.85947 16.3969 9.02822 16.3406 9.19697 16.2281C9.47822 16.0594 9.64697 15.75 9.64697 15.4125V14.2031H10.9688C14.5688 14.2031 17.522 11.3625 17.522 7.875C17.522 4.3875 14.5688 1.575 10.9688 1.575ZM10.9688 12.9938H9.3376C8.80322 12.9938 8.35322 13.4438 8.35322 13.9781V15.0188C3.6001 12.825 1.74385 10.8 1.74385 7.93125C1.74385 5.14688 4.10635 2.86875 7.03135 2.86875H10.9688C13.8657 2.86875 16.2563 5.14688 16.2563 7.93125C16.2563 10.7156 13.8657 12.9938 10.9688 12.9938Z" fill="#64748B"/>
<path id="Vector_2" d="M5.42812 7.28437C5.0625 7.28437 4.78125 7.56562 4.78125 7.93125C4.78125 8.29687 5.0625 8.57812 5.42812 8.57812C5.79375 8.57812 6.075 8.29687 6.075 7.93125C6.075 7.56562 5.79375 7.28437 5.42812 7.28437Z" fill="#64748B"/>
<path id="Vector_3" d="M9.00015 7.28437C8.63452 7.28437 8.35327 7.56562 8.35327 7.93125C8.35327 8.29687 8.63452 8.57812 9.00015 8.57812C9.33765 8.57812 9.64702 8.29687 9.64702 7.93125C9.64702 7.56562 9.33765 7.28437 9.00015 7.28437Z" fill="#64748B"/>
<path id="Vector_4" d="M12.5719 7.28437C12.2063 7.28437 11.925 7.56562 11.925 7.93125C11.925 8.29687 12.2063 8.57812 12.5719 8.57812C12.9375 8.57812 13.2188 8.29687 13.2188 7.93125C13.2188 7.56562 12.9094 7.28437 12.5719 7.28437Z" fill="#64748B"/>
</g>
</g>
</svg>
